<svg id="sd_logo" data-name="sd logo" xmlns="http://www.w3.org/2000/svg" viewBox="0 0 1407.16 1600"><path d="M1469.87,62.73c-26.61-32.84-54.58-52.8-83.13-59.34a128.08,128.08,0,0,0-83.31,8.55c-25.88,11.75-50,31.42-71.58,58.43-20.66,25.81-39.77,55.77-56.8,89a656.57,656.57,0,0,0-42,102.86C1122,297.48,1115,331.71,1112,364c-4.36,22.2-7.66,53.92-9.84,94.28-2.16,40.53-3.62,84.69-4.35,131.24-.72,46.75-.72,93.77,0,139.78.61,38.32,2,72.58,4.08,102.15a147.3,147.3,0,0,0-29.2,2.19,154.81,154.81,0,0,0-37.2,12c-11.19,5.23-23.94,12-37.93,20-13.81,8-31.07,18.68-51.34,31.7l-.88.56-.81.7c-10.31,8.82-26.48,23.51-48,43.64C874.62,962.7,851,987,826.38,1014.59c-12.77,14.26-25.53,29.23-38.19,44.77a16.78,16.78,0,0,0-3.1-.28,32.39,32.39,0,0,0-14.32,3.68c-23.68,11.08-41.86,19.66-57.19,27-17,8.14-33.77,17.09-49.81,26.57-15.72,9.28-33.69,19.35-53.39,29.9-17.68,9.46-39.12,21.11-65.33,35.49-22.41-14.5-50.3-29.14-83.07-43.59-35.42-15.57-71.38-33.18-106.88-52.34a585.94,585.94,0,0,1-95.71-64.17c-27.15-22.51-46.26-49.27-56.8-79.54C193,914.5,197.31,892.85,216.2,874c20.89-20.89,49.3-35.84,84.49-44.47,36.28-8.91,76.32-11.34,119-7.22,42,4.06,78.17,15.63,107.72,34.43,11.72,7.33,23.83,14.67,36,21.82,9.13,5.38,21,11,31.69,6.52a20.29,20.29,0,0,0,11.78-13.94l1.6-6.43-3.5-5.62c-6.53-10.43-13.93-22.41-22.62-36.59s-20.56-28.07-35.27-41.26-35.16-25.46-60.44-36.2c-24.72-10.49-56.1-18.83-93.24-24.79l-.19,0c-41-6.06-80.71-3.34-118,8.09-37.1,11.35-70.16,29-98.28,52.61s-50,51.63-64.6,83.12C97.39,896.16,93,930,99.1,964.49c3.45,32.37,22.55,64.57,56.76,95.69,32.18,29.28,68.85,57.08,109,82.63,39.66,25.24,78.79,48.65,116.32,69.57,26.4,14.71,46.43,27.67,59.82,38.69-15,12.6-31.94,26.67-51.34,42.64a513.85,513.85,0,0,0-66.81,65.72c-19.87,23.7-34.25,48.65-42.78,74.17-9.53,28.52-4.88,56.76,13.83,83.93l.86,1.12c16.52,19.84,39,33.2,66.67,39.74a152.32,152.32,0,0,0,34.86,4.22,121.25,121.25,0,0,0,40.71-6.8c31.52-10.55,66.29-29.4,103.37-56.09,37.46-27,71.54-64.79,101.29-112.36l.5-.86c11.79-21.91,15.59-43.94,11.25-65.51a195.31,195.31,0,0,0-19.92-55.13l-.24-.39a218,218,0,0,0-29.64-39.19c26.81-17.06,50.51-32.06,72-45.65,19.32-12.2,34.53-22,45.47-29.36A525.08,525.08,0,0,0,693.21,1203c-15.85,34-25,67.86-27.31,100.51-2.42,34.63,6.25,65.38,25.72,91.38l.92,1.2,1.12,1c33.16,29.85,72.89,37.08,118.05,21.51,41.12-14.2,83.43-39.08,125.76-74,41.49-34.18,82.07-74,120.62-118.43,29.16-33.58,55.33-64.6,78.12-92.58,6.67,32.8,11.93,62.94,15.71,90,5.44,39,10,72.54,14,102.49,4.28,32.08,9,64.55,14.1,96.49,5,31.74,12,67,20.75,104.7l.37,1.61.7,1.5c11.57,24.62,20.46,42.43,26.49,53,5.59,9.76,12.74,15.26,21.23,16.4a21.06,21.06,0,0,0,3.07.21c5.37,0,12.4-1.85,19.58-9l4.87-4.85-.31-6.87c-1.47-31.92-5.49-77-12-133.87-6.22-54.6-13.12-113.12-20.51-174-7.15-58.57-13.33-114-18.34-164.85-4.54-46-7-80.27-7.42-101.91,25.09-29.93,49.77-65.87,73.46-106.93,24.56-42.64,47-86,66.53-128.71s36.7-84,51.19-123.11c14.22-38.41,25.89-70.47,34.65-95.24l.1-.3c.6-1.81,2.42-7.3,9-35.94,4.25-18.44,9.67-40.86,16.11-66.69,6.5-26,12.74-53.85,18.54-82.78s10.87-56.64,15.21-82.55l.22-1.28V164.31C1503.58,124.1,1492.22,89.88,1469.87,62.73ZM542.69,1349.9l-.21.55c-3.68,11.07-11.82,24.29-24.22,39.3a272.74,272.74,0,0,1-44.92,42.86,199.53,199.53,0,0,1-53.07,29.07c-15.36,5.46-28.5,5.94-40.08,1.44-2-2.39-3.82-7.39,1.32-19.7,6.58-15.8,17.1-32.7,31.22-50.22A454.7,454.7,0,0,1,463.91,1340c15.92-14.21,30.61-26.49,43.8-36.6a198.26,198.26,0,0,1,26,24.55C541.77,1336.92,544.79,1344.31,542.69,1349.9Zm569.52-352.16c-6.69,29.44-20.69,58.73-41.6,87.1a611.12,611.12,0,0,1-75.84,84.21c-29.21,27.07-54.28,51.75-74.53,73.39-13.46,10.79-25.06,19.92-34.52,27.19-9.08,7-17.92,14-26.26,20.8a226.94,226.94,0,0,1-24.26,17.16c-8.21,5.06-18.92,10.29-31.88,15.54-7.75,1.38-13.66.86-15.94-1.42a32.49,32.49,0,0,1-8.85-15.45,96.56,96.56,0,0,1-2.77-23.24V1265.5c11.1-27.43,25.38-57.57,42.44-89.63,17.24-32.44,45.11-68.69,82.79-107.76l0,0c31.28-32.68,58.18-58.89,80-77.83s40.64-33.92,55.79-44.23c14.33-9.77,26.17-15.93,35.19-18.35a113.25,113.25,0,0,1,20.19-3.52C1111.3,948.7,1117.86,972.83,1112.21,997.74ZM1202.3,506c.67-24.46,2.1-48.46,4.24-71.33a754.25,754.25,0,0,1,11.64-76.14l0-.19c4.2-22.34,11.28-48.52,21.07-77.84a519.07,519.07,0,0,1,35.66-82.85c13.66-25.29,28.81-46.68,45-63.58,13.71-14.29,27.69-20.2,42.76-18.06l.26,0c18.72,2.33,26.49,31.61,29.71,55.73,5.56,41.83,5.55,91.86,0,148.69a1232.48,1232.48,0,0,1-30.93,175.93c-14.8,59.22-31.51,108.35-49.65,146-21.34,44.07-40.87,82.78-58,115A443.61,443.61,0,0,1,1206,829.13q-1.95-7.2-4.08-16.2c-3.43-14.34-6.23-32.18-8.32-53s-3.12-41.73-3.16-62.48c4.28-42.9,7.18-79.58,8.65-109.07S1201.57,531.21,1202.3,506Z" transform="translate(-96.42)"/></svg>